<mxfile host="app.diagrams.net" modified="2024-02-17T19:36:23.332Z" agent="Mozilla/5.0 (Windows NT 10.0; Win64; x64) AppleWebKit/537.36 (KHTML, like Gecko) Chrome/121.0.0.0 Safari/537.36" etag="KgoHCZMhlj7mZOVB32KS" version="23.1.5" type="device">
  <diagram name="Page-1" id="5q3zt_JvMtpOoHQjZTyS">
    <mxGraphModel dx="1050" dy="557" grid="1" gridSize="10" guides="1" tooltips="1" connect="1" arrows="1" fold="1" page="1" pageScale="1" pageWidth="827" pageHeight="1169" math="0" shadow="0">
      <root>
        <mxCell id="0" />
        <mxCell id="1" parent="0" />
        <mxCell id="oW_0_tigqxMaFn5Bn4yu-1" value="" style="ellipse;whiteSpace=wrap;html=1;aspect=fixed;" vertex="1" parent="1">
          <mxGeometry x="374" y="90" width="86" height="86" as="geometry" />
        </mxCell>
        <mxCell id="oW_0_tigqxMaFn5Bn4yu-2" value="" style="ellipse;whiteSpace=wrap;html=1;aspect=fixed;" vertex="1" parent="1">
          <mxGeometry x="374" y="270" width="86" height="86" as="geometry" />
        </mxCell>
        <mxCell id="oW_0_tigqxMaFn5Bn4yu-3" value="" style="ellipse;whiteSpace=wrap;html=1;aspect=fixed;" vertex="1" parent="1">
          <mxGeometry x="374" y="440" width="86" height="86" as="geometry" />
        </mxCell>
        <mxCell id="oW_0_tigqxMaFn5Bn4yu-4" value="" style="endArrow=classic;html=1;rounded=0;" edge="1" parent="1">
          <mxGeometry relative="1" as="geometry">
            <mxPoint x="413" y="176" as="sourcePoint" />
            <mxPoint x="413" y="266" as="targetPoint" />
          </mxGeometry>
        </mxCell>
        <mxCell id="oW_0_tigqxMaFn5Bn4yu-8" value="" style="endArrow=classic;html=1;rounded=0;" edge="1" parent="1">
          <mxGeometry relative="1" as="geometry">
            <mxPoint x="414" y="360" as="sourcePoint" />
            <mxPoint x="414" y="440" as="targetPoint" />
          </mxGeometry>
        </mxCell>
        <mxCell id="oW_0_tigqxMaFn5Bn4yu-9" value="" style="rounded=0;whiteSpace=wrap;html=1;" vertex="1" parent="1">
          <mxGeometry x="70" y="103" width="120" height="57" as="geometry" />
        </mxCell>
        <mxCell id="oW_0_tigqxMaFn5Bn4yu-10" value="" style="endArrow=classic;html=1;rounded=0;entryX=0.019;entryY=0.351;entryDx=0;entryDy=0;entryPerimeter=0;" edge="1" parent="1" target="oW_0_tigqxMaFn5Bn4yu-1">
          <mxGeometry relative="1" as="geometry">
            <mxPoint x="190" y="120" as="sourcePoint" />
            <mxPoint x="350" y="120" as="targetPoint" />
          </mxGeometry>
        </mxCell>
        <mxCell id="oW_0_tigqxMaFn5Bn4yu-14" value="&lt;font style=&quot;font-size: 14px;&quot;&gt;Admin&lt;/font&gt;" style="text;html=1;align=center;verticalAlign=middle;whiteSpace=wrap;rounded=0;" vertex="1" parent="1">
          <mxGeometry x="100" y="118" width="60" height="30" as="geometry" />
        </mxCell>
        <mxCell id="oW_0_tigqxMaFn5Bn4yu-15" value="" style="shape=partialRectangle;whiteSpace=wrap;html=1;bottom=1;right=1;left=1;top=0;fillColor=none;routingCenterX=-0.5;direction=south;" vertex="1" parent="1">
          <mxGeometry x="660" y="96.5" width="100" height="70" as="geometry" />
        </mxCell>
        <mxCell id="oW_0_tigqxMaFn5Bn4yu-18" value="" style="endArrow=classic;html=1;rounded=0;exitX=0.833;exitY=1.032;exitDx=0;exitDy=0;exitPerimeter=0;" edge="1" parent="1" source="oW_0_tigqxMaFn5Bn4yu-9">
          <mxGeometry relative="1" as="geometry">
            <mxPoint x="170" y="313" as="sourcePoint" />
            <mxPoint x="374" y="312.5" as="targetPoint" />
            <Array as="points">
              <mxPoint x="170" y="313" />
            </Array>
          </mxGeometry>
        </mxCell>
        <mxCell id="oW_0_tigqxMaFn5Bn4yu-22" value="" style="endArrow=classic;html=1;rounded=0;exitX=0.833;exitY=1.032;exitDx=0;exitDy=0;exitPerimeter=0;" edge="1" parent="1">
          <mxGeometry relative="1" as="geometry">
            <mxPoint x="680" y="166.5" as="sourcePoint" />
            <mxPoint x="460" y="320" as="targetPoint" />
            <Array as="points">
              <mxPoint x="680" y="320" />
              <mxPoint x="650" y="320" />
            </Array>
          </mxGeometry>
        </mxCell>
        <mxCell id="oW_0_tigqxMaFn5Bn4yu-23" value="" style="endArrow=classic;html=1;rounded=0;entryX=0.019;entryY=0.351;entryDx=0;entryDy=0;entryPerimeter=0;" edge="1" parent="1">
          <mxGeometry relative="1" as="geometry">
            <mxPoint x="450" y="110" as="sourcePoint" />
            <mxPoint x="660" y="110" as="targetPoint" />
          </mxGeometry>
        </mxCell>
        <mxCell id="oW_0_tigqxMaFn5Bn4yu-25" value="" style="endArrow=classic;html=1;rounded=0;exitX=0.899;exitY=0.988;exitDx=0;exitDy=0;exitPerimeter=0;" edge="1" parent="1" source="oW_0_tigqxMaFn5Bn4yu-15">
          <mxGeometry relative="1" as="geometry">
            <mxPoint x="550" y="160" as="sourcePoint" />
            <mxPoint x="450" y="160" as="targetPoint" />
          </mxGeometry>
        </mxCell>
        <mxCell id="oW_0_tigqxMaFn5Bn4yu-26" value="" style="endArrow=classic;html=1;rounded=0;exitX=0.42;exitY=1.032;exitDx=0;exitDy=0;exitPerimeter=0;" edge="1" parent="1" source="oW_0_tigqxMaFn5Bn4yu-9">
          <mxGeometry relative="1" as="geometry">
            <mxPoint x="120" y="320" as="sourcePoint" />
            <mxPoint x="374" y="481" as="targetPoint" />
            <Array as="points">
              <mxPoint x="120" y="480" />
              <mxPoint x="244" y="481" />
            </Array>
          </mxGeometry>
        </mxCell>
        <mxCell id="oW_0_tigqxMaFn5Bn4yu-27" value="" style="endArrow=classic;html=1;rounded=0;exitX=1.013;exitY=0.412;exitDx=0;exitDy=0;exitPerimeter=0;" edge="1" parent="1" source="oW_0_tigqxMaFn5Bn4yu-15">
          <mxGeometry relative="1" as="geometry">
            <mxPoint x="720" y="320" as="sourcePoint" />
            <mxPoint x="460" y="483.5" as="targetPoint" />
            <Array as="points">
              <mxPoint x="720" y="484" />
              <mxPoint x="650" y="483.5" />
            </Array>
          </mxGeometry>
        </mxCell>
        <mxCell id="oW_0_tigqxMaFn5Bn4yu-28" value="&lt;font style=&quot;font-size: 14px;&quot;&gt;Diamond Dops&lt;/font&gt;" style="text;html=1;align=center;verticalAlign=middle;whiteSpace=wrap;rounded=0;" vertex="1" parent="1">
          <mxGeometry x="670" y="118" width="100" height="30" as="geometry" />
        </mxCell>
        <mxCell id="oW_0_tigqxMaFn5Bn4yu-29" value="Login Account" style="text;html=1;align=center;verticalAlign=middle;whiteSpace=wrap;rounded=0;" vertex="1" parent="1">
          <mxGeometry x="250" y="130" width="60" height="30" as="geometry" />
        </mxCell>
        <mxCell id="oW_0_tigqxMaFn5Bn4yu-30" value="Fetch Admin Data" style="text;html=1;align=center;verticalAlign=middle;whiteSpace=wrap;rounded=0;" vertex="1" parent="1">
          <mxGeometry x="520" y="80" width="70" height="30" as="geometry" />
        </mxCell>
        <mxCell id="oW_0_tigqxMaFn5Bn4yu-31" value="Verify Panel Data" style="text;html=1;align=center;verticalAlign=middle;whiteSpace=wrap;rounded=0;" vertex="1" parent="1">
          <mxGeometry x="520" y="166.5" width="70" height="30" as="geometry" />
        </mxCell>
        <mxCell id="oW_0_tigqxMaFn5Bn4yu-33" value="&lt;font style=&quot;font-size: 14px;&quot;&gt;1.0&lt;br&gt;&lt;br&gt;Login&lt;/font&gt;" style="text;html=1;align=center;verticalAlign=middle;whiteSpace=wrap;rounded=0;" vertex="1" parent="1">
          <mxGeometry x="387" y="116.5" width="60" height="30" as="geometry" />
        </mxCell>
        <mxCell id="oW_0_tigqxMaFn5Bn4yu-34" value="&lt;font style=&quot;font-size: 14px;&quot;&gt;2.0&lt;br&gt;&lt;br&gt;Profile&lt;/font&gt;" style="text;html=1;align=center;verticalAlign=middle;whiteSpace=wrap;rounded=0;" vertex="1" parent="1">
          <mxGeometry x="387" y="298" width="60" height="30" as="geometry" />
        </mxCell>
        <mxCell id="oW_0_tigqxMaFn5Bn4yu-35" value="&lt;font style=&quot;font-size: 14px;&quot;&gt;3.0&lt;br&gt;&lt;br&gt;Earning&lt;/font&gt;" style="text;html=1;align=center;verticalAlign=middle;whiteSpace=wrap;rounded=0;" vertex="1" parent="1">
          <mxGeometry x="387" y="468" width="60" height="30" as="geometry" />
        </mxCell>
        <mxCell id="oW_0_tigqxMaFn5Bn4yu-36" value="View Profile" style="text;html=1;align=center;verticalAlign=middle;whiteSpace=wrap;rounded=0;" vertex="1" parent="1">
          <mxGeometry x="235" y="280" width="90" height="30" as="geometry" />
        </mxCell>
        <mxCell id="oW_0_tigqxMaFn5Bn4yu-37" value="Get user data" style="text;html=1;align=center;verticalAlign=middle;whiteSpace=wrap;rounded=0;" vertex="1" parent="1">
          <mxGeometry x="510" y="290" width="75" height="30" as="geometry" />
        </mxCell>
        <mxCell id="oW_0_tigqxMaFn5Bn4yu-38" value="View Total Earning" style="text;html=1;align=center;verticalAlign=middle;whiteSpace=wrap;rounded=0;" vertex="1" parent="1">
          <mxGeometry x="250" y="438" width="60" height="30" as="geometry" />
        </mxCell>
        <mxCell id="oW_0_tigqxMaFn5Bn4yu-39" value="Show Amount" style="text;html=1;align=center;verticalAlign=middle;whiteSpace=wrap;rounded=0;" vertex="1" parent="1">
          <mxGeometry x="525" y="450" width="60" height="30" as="geometry" />
        </mxCell>
      </root>
    </mxGraphModel>
  </diagram>
</mxfile>
